<?xml version="1.0" encoding="UTF-8" standalone="no"?>
<!-- Created with Inkscape (http://www.inkscape.org/) -->
<svg
   xmlns:dc="http://purl.org/dc/elements/1.1/"
   xmlns:cc="http://creativecommons.org/ns#"
   xmlns:rdf="http://www.w3.org/1999/02/22-rdf-syntax-ns#"
   xmlns:svg="http://www.w3.org/2000/svg"
   xmlns="http://www.w3.org/2000/svg"
   xmlns:sodipodi="http://sodipodi.sourceforge.net/DTD/sodipodi-0.dtd"
   xmlns:inkscape="http://www.inkscape.org/namespaces/inkscape"
   width="180"
   height="180.00002"
   id="svg2386"
   sodipodi:version="0.32"
   inkscape:version="0.46"
   version="1.0"
   sodipodi:docname="test.svg"
   inkscape:output_extension="org.inkscape.output.svg.inkscape">
  <defs
     id="defs2388">
    <inkscape:perspective
       sodipodi:type="inkscape:persp3d"
       inkscape:vp_x="0 : 526.18109 : 1"
       inkscape:vp_y="0 : 1000 : 0"
       inkscape:vp_z="744.09448 : 526.18109 : 1"
       inkscape:persp3d-origin="372.04724 : 350.78739 : 1"
       id="perspective2394" />
  </defs>
  <sodipodi:namedview
     id="base"
     pagecolor="#ffffff"
     bordercolor="#666666"
     borderopacity="1.0"
     gridtolerance="10000"
     guidetolerance="10"
     objecttolerance="10"
     inkscape:pageopacity="0.0"
     inkscape:pageshadow="2"
     inkscape:zoom="0.98994949"
     inkscape:cx="212.50986"
     inkscape:cy="52.62585"
     inkscape:document-units="px"
     inkscape:current-layer="layer1"
     showgrid="false"
     inkscape:window-width="640"
     inkscape:window-height="654"
     inkscape:window-x="147"
     inkscape:window-y="113" />
  <metadata
     id="metadata2391">
    <rdf:RDF>
      <cc:Work
         rdf:about="">
        <dc:format>image/svg+xml</dc:format>
        <dc:type
           rdf:resource="http://purl.org/dc/dcmitype/StillImage" />
      </cc:Work>
    </rdf:RDF>
  </metadata>
  <g
     inkscape:label="Layer 1"
     inkscape:groupmode="layer"
     id="layer1"
     transform="translate(-284.99999,-442.36218)">
    <g
       transform="matrix(3.9730527,0,0,3.9730527,296.01668,266.72069)"
       id="g2382">
      <rect
         y="44.208195"
         x="-2.7728517"
         height="45.305214"
         width="45.305214"
         id="rect3177"
         style="fill:#ffffff;fill-opacity:1;stroke:none;stroke-width:1;stroke-linecap:butt;stroke-linejoin:miter;stroke-miterlimit:1;stroke-dasharray:4, 2;stroke-dashoffset:0;stroke-opacity:1" />
      <path
         d="M -2.7728517,44.208197 L -2.7728517,89.51341 L 19.942159,89.51341 L 19.973361,86.112399 L 17.602014,82.180955 C 18.141563,82.053651 19.542275,81.284706 19.973361,80.745665 L 19.973361,86.112399 L 22.37591,82.212157 C 21.826137,82.08021 20.375872,81.25538 19.973361,80.714464 L 19.973361,79.185568 C 23.448509,81.832372 27.554065,81.781201 30.238799,79.591194 C 32.9646,77.366491 33.995891,73.616897 32.298126,70.043401 C 35.93141,68.313925 37.214554,63.82473 35.979955,60.589214 C 34.723021,57.297534 31.511968,55.136743 27.586634,55.628105 C 27.094771,51.713995 23.381991,49.085684 19.973361,49.138103 L 19.973361,52.819931 C 20.222727,52.818035 20.477465,52.828668 20.722208,52.851133 C 23.500059,53.122476 25.995585,54.54777 27.21221,56.252145 L 27.21221,56.283347 C 29.853522,57.233263 32.25707,60.159246 32.828559,62.866955 C 33.402186,65.596281 32.811835,68.404925 31.54928,70.074602 L 31.486876,70.074602 C 31.371804,72.878674 29.347052,76.051766 26.931394,77.407058 C 24.627193,78.702293 21.926603,79.010339 19.973361,78.436722 L 19.973361,79.029559 C 17.126247,81.648245 13.319111,81.949311 10.394366,80.090424 C 7.4133379,78.19147 5.7724852,73.662077 7.8358072,70.074602 C 4.2226225,68.160671 2.8363879,64.426683 3.810757,60.963637 C 4.7494411,57.628025 8.4755717,54.818223 12.422492,55.596904 C 13.187564,51.712767 16.269317,49.330307 19.78615,49.169305 C 19.852557,49.167428 19.906843,49.138103 19.973361,49.138103 L 19.942159,44.208197 L -2.7728517,44.208197 z M 19.973361,78.436722 L 19.973361,74.754893 C 19.139396,72.292427 14.639827,69.001506 11.923261,68.639314 C 13.953763,66.938684 15.547928,62.239053 15.043455,59.091521 C 16.401862,59.751265 18.126336,60.172606 19.973361,60.214791 L 19.973361,52.819931 C 17.361135,52.842377 14.31321,54.211788 12.765713,56.252145 L 12.734512,56.252145 C 10.741961,56.902653 8.6391996,58.861625 7.5549897,61.431666 C 6.5254553,63.872676 6.7563496,67.427181 8.2102305,69.731382 C 8.2200952,71.782981 9.3190225,74.293475 11.268021,76.127779 C 13.279802,78.025875 16.096713,79.259325 19.973361,78.436722 z M 19.973361,60.214791 L 19.973361,61.962099 C 22.263084,61.962079 24.123219,63.824481 24.123219,66.111957 C 24.123229,68.4013 22.263084,70.261815 19.973361,70.261815 L 19.973361,74.754893 C 21.237793,72.001375 25.879763,69.187849 28.304278,68.826525 C 26.09643,67.233569 24.715187,62.442229 25.184084,59.185126 C 23.454998,59.960073 21.658515,60.254978 19.973361,60.214791 z M 19.973361,70.261815 L 19.973361,61.962099 C 17.68264,61.962079 15.823504,63.824481 15.823504,66.111957 C 15.823504,68.4013 17.68264,70.261815 19.973361,70.261815 z M 8.428644,49.855747 L 12.640906,51.634257 C 12.27447,52.065703 11.589905,53.550186 11.58004,54.224019 C 10.93753,54.022799 9.2940609,54.195932 8.7718653,54.41123 L 8.428644,49.855747 z M 31.923703,49.980555 L 27.711442,51.727864 C 28.07551,52.161196 28.767195,53.643813 28.772307,54.317624 C 29.416695,54.121057 31.024219,54.349196 31.54928,54.56724 L 31.923703,49.980555 z M 4.0291705,68.701718 C 4.322968,69.185623 5.5106385,70.327334 6.1509022,70.542632 C 5.7577578,71.097558 5.4232731,72.691951 5.4644596,73.2572 L 1.0337846,72.165133 L 4.0291705,68.701718 z M 36.104763,68.88893 C 35.806223,69.370068 34.591973,70.515553 33.951829,70.729844 C 34.342108,71.279118 34.653379,72.882768 34.60707,73.444412 L 39.068947,72.383546 L 36.104763,68.88893 z"
         id="path2535"
         style="fill:#000000;fill-opacity:1;fill-rule:nonzero;stroke:none" />
    </g>
  </g>
</svg>
